<svg enable-background="new 0 0 32 32" id="Слой_1" version="1.1" viewBox="0 0 32 32" xml:space="preserve" xmlns="http://www.w3.org/2000/svg" xmlns:xlink="http://www.w3.org/1999/xlink"><g id="Double_Check"><polygon fill="none" points="22.722,8.293 22.722,8.293 22.722,8.293  " id="id_101"></polygon><polygon fill="none" points="31.704,8.293 31.704,8.293 31.704,8.293  " id="id_102"></polygon><path d="M22.722,8.293L22.722,8.293C22.821,8.391,22.919,8.488,22.722,8.293z" fill="#5c1f91" id="id_103"></path><path d="M22.722,8.293L22.722,8.293c-0.395-0.391-1.034-0.391-1.429,0L7.006,22.486l-5.282-5.193   c-0.394-0.391-1.034-0.391-1.428,0c-0.394,0.391-0.394,1.024,0,1.414l5.999,5.899c0.39,0.386,1.039,0.386,1.429,0L22.722,9.707   C23.117,9.317,23.116,8.684,22.722,8.293z" fill="#5c1f91" id="id_104"></path><path d="M22.722,8.293L22.722,8.293C22.525,8.098,22.623,8.195,22.722,8.293z" fill="#5c1f91" id="id_105"></path><path d="M31.704,8.293L31.704,8.293C31.507,8.098,31.606,8.195,31.704,8.293z" fill="#5c1f91" id="id_106"></path><path d="M31.704,8.293L31.704,8.293C31.803,8.391,31.901,8.488,31.704,8.293z" fill="#5c1f91" id="id_107"></path><path d="M31.704,8.293L31.704,8.293c-0.395-0.391-1.034-0.391-1.429,0L15.988,22.486l-1.282-1.193   c-0.394-0.391-1.034-0.391-1.428,0c-0.394,0.391-0.394,1.024,0,1.414l1.999,1.899c0.39,0.386,1.039,0.386,1.429,0L31.704,9.707   C32.099,9.317,32.099,8.684,31.704,8.293z" fill="#5c1f91" id="id_108"></path></g><g></g><g></g><g></g><g></g><g></g><g></g></svg>